<svg width="31" height="27" viewBox="0 0 31 27" fill="none" xmlns="http://www.w3.org/2000/svg">
<path d="M19.4686 15.8845H3.82061C2.92166 15.8845 2.1529 15.3051 1.99791 14.5084L0.0140117 4.25668C-0.0851831 3.74409 0.354994 3.27608 0.931564 3.27608H21.8245L22.3391 0.869164C22.4444 0.362152 22.9404 0 23.5108 0H29.8097C30.4668 0.00557156 31 0.484726 31 1.07531C31 1.6659 30.4668 2.14505 29.8097 2.14505H24.4965L24.2548 3.27608H24.3539L21.8369 15.4277L22.7358 17.4446C23.1078 18.2803 22.9962 19.2219 22.432 19.9685C21.8679 20.7151 20.9379 21.1608 19.9398 21.1608H3.01466C2.35749 21.1608 1.82432 20.6816 1.82432 20.0911C1.82432 19.5005 2.35749 19.0213 3.01466 19.0213H19.9398C20.2312 19.0213 20.3924 18.8653 20.4605 18.7706C20.5287 18.6759 20.6341 18.4865 20.5225 18.2413L19.4748 15.8845H19.4686Z" fill="#67DCFA"/>
<path d="M18.7247 22.4313C20.1259 22.4313 21.2666 23.4509 21.2666 24.7156C21.2666 25.9804 20.1321 27 18.7247 27C17.3174 27 16.1829 25.9804 16.1829 24.7156C16.1829 23.4509 17.3174 22.4313 18.7247 22.4313Z" fill="#67DCFA"/>
<path d="M5.45715 22.4313C6.85828 22.4313 7.99902 23.4509 7.99902 24.7156C7.99902 25.9804 6.86448 27 5.45715 27C4.04983 27 2.91529 25.9804 2.91529 24.7156C2.91529 23.4509 4.04983 22.4313 5.45715 22.4313Z" fill="#67DCFA"/>
</svg>
