<svg width="14" height="14" viewBox="0 0 14 14" fill="none" xmlns="http://www.w3.org/2000/svg">
<g clip-path="url(#clip0_704_43)">
<path d="M1.25878 1.41674L0.126773 3.35726C0.126773 3.35726 -0.289736 4.02918 0.387163 5.14329C0.387163 5.14329 1.90572 7.6225 4.26939 9.90989C6.60484 12.1961 9.09928 13.6405 9.09928 13.6405C10.2307 14.2906 10.8961 13.861 10.8961 13.861L12.8173 12.69C13.1572 12.288 13.307 11.855 13.307 11.855C13.549 11.2939 13.0927 10.9873 13.0927 10.9873C12.2061 10.139 10.1305 9.50444 10.1305 9.50444C9.35276 9.27185 9.0267 10.0552 9.0267 10.0552L8.82622 10.4457C8.41029 11.1618 7.65447 10.5267 7.65447 10.5267L5.56558 8.54538L3.54238 6.51584C3.54238 6.51584 2.88852 5.77616 3.59768 5.34602L3.98481 5.13813C3.98481 5.13813 4.7631 4.79585 4.51308 4.0263C4.51308 4.0263 3.83099 1.9715 2.96111 1.10662C2.96111 1.10662 2.64426 0.658103 2.08604 0.911365C2.08604 0.911365 1.6557 1.07044 1.25993 1.41789L1.25878 1.41674Z" fill="black" stroke="black"/>
</g>
<defs>
<clipPath id="clip0_704_43">
<rect width="14" height="14" fill="white"/>
</clipPath>
</defs>
</svg>
